<svg version="1.1" viewBox="0 0 400 400" xmlns="http://www.w3.org/2000/svg" xmlns:xlink="http://www.w3.org/1999/xlink"><style>
.square.light {
fill: #cacaca;
}
.square.dark {
fill: #898989;
}
#xx {
fill: blue;
stroke: red;
}
.square.light.lastmove {
fill: #c3d889;
}
.square.dark.lastmove {
fill: #92b167;
}
.check {
fill: url(#check_gradient);
}
.arrow {
stroke: #ff5858;
fill: blue;
}
.mark {
stroke: #959fff;
fill: blue;
}
</style><defs><g class="white bishop" fill="none" fill-rule="evenodd" id="white-bishop" stroke="#000" stroke-linecap="round" stroke-linejoin="round" stroke-width="1.5"><g fill="#fff" stroke-linecap="butt"><path d="M9 36c3.39-.97 10.11.43 13.5-2 3.39 2.43 10.11 1.03 13.5 2 0 0 1.65.54 3 2-.68.97-1.65.99-3 .5-3.39-.97-10.11.46-13.5-1-3.39 1.46-10.11.03-13.5 1-1.354.49-2.323.47-3-.5 1.354-1.94 3-2 3-2zM15 32c2.5 2.5 12.5 2.5 15 0 .5-1.5 0-2 0-2 0-2.5-2.5-4-2.5-4 5.5-1.5 6-11.5-5-15.5-11 4-10.5 14-5 15.5 0 0-2.5 1.5-2.5 4 0 0-.5.5 0 2zM25 8a2.5 2.5 0 1 1-5 0 2.5 2.5 0 1 1 5 0z" /></g><path d="M17.5 26h10M15 30h15m-7.5-14.5v5M20 18h5" stroke-linejoin="miter" /></g><g class="white queen" fill="#fff" fill-rule="evenodd" id="white-queen" stroke="#000" stroke-linecap="round" stroke-linejoin="round" stroke-width="1.5"><path d="M8 12a2 2 0 1 1-4 0 2 2 0 1 1 4 0zM24.5 7.5a2 2 0 1 1-4 0 2 2 0 1 1 4 0zM41 12a2 2 0 1 1-4 0 2 2 0 1 1 4 0zM16 8.5a2 2 0 1 1-4 0 2 2 0 1 1 4 0zM33 9a2 2 0 1 1-4 0 2 2 0 1 1 4 0z" /><path d="M9 26c8.5-1.5 21-1.5 27 0l2-12-7 11V11l-5.5 13.5-3-15-3 15-5.5-14V25L7 14l2 12zM9 26c0 2 1.5 2 2.5 4 1 1.5 1 1 .5 3.5-1.5 1-1.5 2.5-1.5 2.5-1.5 1.5.5 2.5.5 2.5 6.5 1 16.5 1 23 0 0 0 1.5-1 0-2.5 0 0 .5-1.5-1-2.5-.5-2.5-.5-2 .5-3.5 1-2 2.5-2 2.5-4-8.5-1.5-18.5-1.5-27 0z" stroke-linecap="butt" /><path d="M11.5 30c3.5-1 18.5-1 22 0M12 33.5c6-1 15-1 21 0" fill="none" /></g></defs><rect class="square dark a1" fill="#d18b47" height="45" stroke="none" width="45" x="20" y="335" /><use transform="translate(20, 335)" xlink:href="#white-queen" /><rect class="square light b1" fill="#ffce9e" height="45" stroke="none" width="45" x="65" y="335" /><rect class="square dark c1" fill="#d18b47" height="45" stroke="none" width="45" x="110" y="335" /><rect class="square light d1" fill="#ffce9e" height="45" stroke="none" width="45" x="155" y="335" /><rect class="square dark e1" fill="#d18b47" height="45" stroke="none" width="45" x="200" y="335" /><rect class="square light f1" fill="#ffce9e" height="45" stroke="none" width="45" x="245" y="335" /><rect class="square dark g1" fill="#d18b47" height="45" stroke="none" width="45" x="290" y="335" /><rect class="square light h1" fill="#ffce9e" height="45" stroke="none" width="45" x="335" y="335" /><rect class="square light a2" fill="#ffce9e" height="45" stroke="none" width="45" x="20" y="290" /><rect class="square dark b2" fill="#d18b47" height="45" stroke="none" width="45" x="65" y="290" /><rect class="square light c2" fill="#ffce9e" height="45" stroke="none" width="45" x="110" y="290" /><rect class="square dark d2" fill="#d18b47" height="45" stroke="none" width="45" x="155" y="290" /><use transform="translate(155, 290)" xlink:href="#white-queen" /><rect class="square light e2" fill="#ffce9e" height="45" stroke="none" width="45" x="200" y="290" /><rect class="square dark f2" fill="#d18b47" height="45" stroke="none" width="45" x="245" y="290" /><rect class="square light g2" fill="#ffce9e" height="45" stroke="none" width="45" x="290" y="290" /><rect class="square dark h2" fill="#d18b47" height="45" stroke="none" width="45" x="335" y="290" /><rect class="square dark a3" fill="#d18b47" height="45" stroke="none" width="45" x="20" y="245" /><rect class="square light b3" fill="#ffce9e" height="45" stroke="none" width="45" x="65" y="245" /><rect class="square dark c3" fill="#d18b47" height="45" stroke="none" width="45" x="110" y="245" /><rect class="square light d3" fill="#ffce9e" height="45" stroke="none" width="45" x="155" y="245" /><use transform="translate(155, 245)" xlink:href="#white-queen" /><rect class="square dark e3" fill="#d18b47" height="45" stroke="none" width="45" x="200" y="245" /><rect class="square light f3" fill="#ffce9e" height="45" stroke="none" width="45" x="245" y="245" /><rect class="square dark g3" fill="#d18b47" height="45" stroke="none" width="45" x="290" y="245" /><rect class="square light h3" fill="#ffce9e" height="45" stroke="none" width="45" x="335" y="245" /><rect class="square light a4" fill="#ffce9e" height="45" stroke="none" width="45" x="20" y="200" /><rect class="square dark b4" fill="#d18b47" height="45" stroke="none" width="45" x="65" y="200" /><rect class="square light c4" fill="#ffce9e" height="45" stroke="none" width="45" x="110" y="200" /><rect class="square dark d4" fill="#d18b47" height="45" stroke="none" width="45" x="155" y="200" /><rect class="square light e4" fill="#ffce9e" height="45" stroke="none" width="45" x="200" y="200" /><rect class="square dark f4" fill="#d18b47" height="45" stroke="none" width="45" x="245" y="200" /><rect class="square light g4" fill="#ffce9e" height="45" stroke="none" width="45" x="290" y="200" /><rect class="square dark h4" fill="#d18b47" height="45" stroke="none" width="45" x="335" y="200" /><rect class="square dark a5" fill="#d18b47" height="45" stroke="none" width="45" x="20" y="155" /><rect class="square light b5" fill="#ffce9e" height="45" stroke="none" width="45" x="65" y="155" /><rect class="square dark c5" fill="#d18b47" height="45" stroke="none" width="45" x="110" y="155" /><rect class="square light d5" fill="#ffce9e" height="45" stroke="none" width="45" x="155" y="155" /><use transform="translate(155, 155)" xlink:href="#white-bishop" /><rect class="square dark e5" fill="#d18b47" height="45" stroke="none" width="45" x="200" y="155" /><rect class="square light f5" fill="#ffce9e" height="45" stroke="none" width="45" x="245" y="155" /><rect class="square dark g5" fill="#d18b47" height="45" stroke="none" width="45" x="290" y="155" /><rect class="square light h5" fill="#ffce9e" height="45" stroke="none" width="45" x="335" y="155" /><rect class="square light a6" fill="#ffce9e" height="45" stroke="none" width="45" x="20" y="110" /><rect class="square dark b6" fill="#d18b47" height="45" stroke="none" width="45" x="65" y="110" /><rect class="square light c6" fill="#ffce9e" height="45" stroke="none" width="45" x="110" y="110" /><rect class="square dark d6" fill="#d18b47" height="45" stroke="none" width="45" x="155" y="110" /><rect class="square light e6" fill="#ffce9e" height="45" stroke="none" width="45" x="200" y="110" /><rect class="square dark f6" fill="#d18b47" height="45" stroke="none" width="45" x="245" y="110" /><rect class="square light g6" fill="#ffce9e" height="45" stroke="none" width="45" x="290" y="110" /><rect class="square dark h6" fill="#d18b47" height="45" stroke="none" width="45" x="335" y="110" /><rect class="square dark a7" fill="#d18b47" height="45" stroke="none" width="45" x="20" y="65" /><rect class="square light b7" fill="#ffce9e" height="45" stroke="none" width="45" x="65" y="65" /><rect class="square dark c7" fill="#d18b47" height="45" stroke="none" width="45" x="110" y="65" /><rect class="square light d7" fill="#ffce9e" height="45" stroke="none" width="45" x="155" y="65" /><rect class="square dark e7" fill="#d18b47" height="45" stroke="none" width="45" x="200" y="65" /><rect class="square light f7" fill="#ffce9e" height="45" stroke="none" width="45" x="245" y="65" /><rect class="square dark g7" fill="#d18b47" height="45" stroke="none" width="45" x="290" y="65" /><rect class="square light h7" fill="#ffce9e" height="45" stroke="none" width="45" x="335" y="65" /><rect class="square light a8" fill="#ffce9e" height="45" stroke="none" width="45" x="20" y="20" /><rect class="square dark b8" fill="#d18b47" height="45" stroke="none" width="45" x="65" y="20" /><rect class="square light c8" fill="#ffce9e" height="45" stroke="none" width="45" x="110" y="20" /><rect class="square dark d8" fill="#d18b47" height="45" stroke="none" width="45" x="155" y="20" /><use transform="translate(155, 20)" xlink:href="#white-queen" /><rect class="square light e8" fill="#ffce9e" height="45" stroke="none" width="45" x="200" y="20" /><rect class="square dark f8" fill="#d18b47" height="45" stroke="none" width="45" x="245" y="20" /><rect class="square light g8" fill="#ffce9e" height="45" stroke="none" width="45" x="290" y="20" /><rect class="square dark h8" fill="#d18b47" height="45" stroke="none" width="45" x="335" y="20" /><text alignment-baseline="middle" font-size="14" text-anchor="middle" x="42" y="10">a</text><text alignment-baseline="middle" font-size="14" text-anchor="middle" x="42" y="390">a</text><text alignment-baseline="middle" font-size="14" text-anchor="middle" x="87" y="10">b</text><text alignment-baseline="middle" font-size="14" text-anchor="middle" x="87" y="390">b</text><text alignment-baseline="middle" font-size="14" text-anchor="middle" x="132" y="10">c</text><text alignment-baseline="middle" font-size="14" text-anchor="middle" x="132" y="390">c</text><text alignment-baseline="middle" font-size="14" text-anchor="middle" x="177" y="10">d</text><text alignment-baseline="middle" font-size="14" text-anchor="middle" x="177" y="390">d</text><text alignment-baseline="middle" font-size="14" text-anchor="middle" x="222" y="10">e</text><text alignment-baseline="middle" font-size="14" text-anchor="middle" x="222" y="390">e</text><text alignment-baseline="middle" font-size="14" text-anchor="middle" x="267" y="10">f</text><text alignment-baseline="middle" font-size="14" text-anchor="middle" x="267" y="390">f</text><text alignment-baseline="middle" font-size="14" text-anchor="middle" x="312" y="10">g</text><text alignment-baseline="middle" font-size="14" text-anchor="middle" x="312" y="390">g</text><text alignment-baseline="middle" font-size="14" text-anchor="middle" x="357" y="10">h</text><text alignment-baseline="middle" font-size="14" text-anchor="middle" x="357" y="390">h</text><text alignment-baseline="middle" font-size="14" text-anchor="middle" x="10" y="357">1</text><text alignment-baseline="middle" font-size="14" text-anchor="middle" x="390" y="357">1</text><text alignment-baseline="middle" font-size="14" text-anchor="middle" x="10" y="312">2</text><text alignment-baseline="middle" font-size="14" text-anchor="middle" x="390" y="312">2</text><text alignment-baseline="middle" font-size="14" text-anchor="middle" x="10" y="267">3</text><text alignment-baseline="middle" font-size="14" text-anchor="middle" x="390" y="267">3</text><text alignment-baseline="middle" font-size="14" text-anchor="middle" x="10" y="222">4</text><text alignment-baseline="middle" font-size="14" text-anchor="middle" x="390" y="222">4</text><text alignment-baseline="middle" font-size="14" text-anchor="middle" x="10" y="177">5</text><text alignment-baseline="middle" font-size="14" text-anchor="middle" x="390" y="177">5</text><text alignment-baseline="middle" font-size="14" text-anchor="middle" x="10" y="132">6</text><text alignment-baseline="middle" font-size="14" text-anchor="middle" x="390" y="132">6</text><text alignment-baseline="middle" font-size="14" text-anchor="middle" x="10" y="87">7</text><text alignment-baseline="middle" font-size="14" text-anchor="middle" x="390" y="87">7</text><text alignment-baseline="middle" font-size="14" text-anchor="middle" x="10" y="42">8</text><text alignment-baseline="middle" font-size="14" text-anchor="middle" x="390" y="42">8</text><circle class="circle" cx="312.5" cy="222.5" fill="none" opacity="0.5" r="20.25" stroke="red" stroke-width="4.5" /><circle class="circle" cx="132.5" cy="177.5" fill="none" opacity="0.5" r="20.25" stroke="red" stroke-width="4.5" /><circle class="circle" cx="357.5" cy="177.5" fill="none" opacity="0.5" r="20.25" stroke="red" stroke-width="4.5" /></svg><svg version="1.1" viewBox="0 0 400 400" xmlns="http://www.w3.org/2000/svg" xmlns:xlink="http://www.w3.org/1999/xlink"><style>
.square.light {
fill: #cacaca;
}
.square.dark {
fill: #898989;
}
#xx {
fill: blue;
stroke: red;
}
.square.light.lastmove {
fill: #c3d889;
}
.square.dark.lastmove {
fill: #92b167;
}
.check {
fill: url(#check_gradient);
}
.arrow {
stroke: #ff5858;
fill: blue;
}
.mark {
stroke: #959fff;
fill: blue;
}
</style><defs><g class="white bishop" fill="none" fill-rule="evenodd" id="white-bishop" stroke="#000" stroke-linecap="round" stroke-linejoin="round" stroke-width="1.5"><g fill="#fff" stroke-linecap="butt"><path d="M9 36c3.39-.97 10.11.43 13.5-2 3.39 2.43 10.11 1.03 13.5 2 0 0 1.65.54 3 2-.68.97-1.65.99-3 .5-3.39-.97-10.11.46-13.5-1-3.39 1.46-10.11.03-13.5 1-1.354.49-2.323.47-3-.5 1.354-1.94 3-2 3-2zM15 32c2.5 2.5 12.5 2.5 15 0 .5-1.5 0-2 0-2 0-2.5-2.5-4-2.5-4 5.5-1.5 6-11.5-5-15.5-11 4-10.5 14-5 15.5 0 0-2.5 1.5-2.5 4 0 0-.5.5 0 2zM25 8a2.5 2.5 0 1 1-5 0 2.5 2.5 0 1 1 5 0z" /></g><path d="M17.5 26h10M15 30h15m-7.5-14.5v5M20 18h5" stroke-linejoin="miter" /></g><g class="white queen" fill="#fff" fill-rule="evenodd" id="white-queen" stroke="#000" stroke-linecap="round" stroke-linejoin="round" stroke-width="1.5"><path d="M8 12a2 2 0 1 1-4 0 2 2 0 1 1 4 0zM24.5 7.5a2 2 0 1 1-4 0 2 2 0 1 1 4 0zM41 12a2 2 0 1 1-4 0 2 2 0 1 1 4 0zM16 8.5a2 2 0 1 1-4 0 2 2 0 1 1 4 0zM33 9a2 2 0 1 1-4 0 2 2 0 1 1 4 0z" /><path d="M9 26c8.5-1.5 21-1.5 27 0l2-12-7 11V11l-5.5 13.5-3-15-3 15-5.5-14V25L7 14l2 12zM9 26c0 2 1.5 2 2.5 4 1 1.5 1 1 .5 3.5-1.5 1-1.5 2.5-1.5 2.5-1.5 1.5.5 2.5.5 2.5 6.5 1 16.5 1 23 0 0 0 1.5-1 0-2.5 0 0 .5-1.5-1-2.5-.5-2.5-.5-2 .5-3.5 1-2 2.5-2 2.5-4-8.5-1.5-18.5-1.5-27 0z" stroke-linecap="butt" /><path d="M11.5 30c3.5-1 18.5-1 22 0M12 33.5c6-1 15-1 21 0" fill="none" /></g></defs><rect class="square dark a1" fill="#d18b47" height="45" stroke="none" width="45" x="20" y="335" /><rect class="square light b1" fill="#ffce9e" height="45" stroke="none" width="45" x="65" y="335" /><rect class="square dark c1" fill="#d18b47" height="45" stroke="none" width="45" x="110" y="335" /><rect class="square light d1" fill="#ffce9e" height="45" stroke="none" width="45" x="155" y="335" /><rect class="square dark e1" fill="#d18b47" height="45" stroke="none" width="45" x="200" y="335" /><rect class="square light f1" fill="#ffce9e" height="45" stroke="none" width="45" x="245" y="335" /><rect class="square dark g1" fill="#d18b47" height="45" stroke="none" width="45" x="290" y="335" /><rect class="square light h1" fill="#ffce9e" height="45" stroke="none" width="45" x="335" y="335" /><rect class="square light a2" fill="#ffce9e" height="45" stroke="none" width="45" x="20" y="290" /><rect class="square dark b2" fill="#d18b47" height="45" stroke="none" width="45" x="65" y="290" /><rect class="square light c2" fill="#ffce9e" height="45" stroke="none" width="45" x="110" y="290" /><rect class="square dark d2" fill="#d18b47" height="45" stroke="none" width="45" x="155" y="290" /><rect class="square light e2" fill="#ffce9e" height="45" stroke="none" width="45" x="200" y="290" /><rect class="square dark f2" fill="#d18b47" height="45" stroke="none" width="45" x="245" y="290" /><rect class="square light g2" fill="#ffce9e" height="45" stroke="none" width="45" x="290" y="290" /><rect class="square dark h2" fill="#d18b47" height="45" stroke="none" width="45" x="335" y="290" /><rect class="square dark a3" fill="#d18b47" height="45" stroke="none" width="45" x="20" y="245" /><rect class="square light b3" fill="#ffce9e" height="45" stroke="none" width="45" x="65" y="245" /><rect class="square dark c3" fill="#d18b47" height="45" stroke="none" width="45" x="110" y="245" /><rect class="square light d3" fill="#ffce9e" height="45" stroke="none" width="45" x="155" y="245" /><rect class="square dark e3" fill="#d18b47" height="45" stroke="none" width="45" x="200" y="245" /><rect class="square light f3" fill="#ffce9e" height="45" stroke="none" width="45" x="245" y="245" /><rect class="square dark g3" fill="#d18b47" height="45" stroke="none" width="45" x="290" y="245" /><rect class="square light h3" fill="#ffce9e" height="45" stroke="none" width="45" x="335" y="245" /><rect class="square light a4" fill="#ffce9e" height="45" stroke="none" width="45" x="20" y="200" /><rect class="square dark b4" fill="#d18b47" height="45" stroke="none" width="45" x="65" y="200" /><use transform="translate(65, 200)" xlink:href="#white-bishop" /><rect class="square light c4" fill="#ffce9e" height="45" stroke="none" width="45" x="110" y="200" /><rect class="square dark d4" fill="#d18b47" height="45" stroke="none" width="45" x="155" y="200" /><rect class="square light e4" fill="#ffce9e" height="45" stroke="none" width="45" x="200" y="200" /><rect class="square dark f4" fill="#d18b47" height="45" stroke="none" width="45" x="245" y="200" /><rect class="square light g4" fill="#ffce9e" height="45" stroke="none" width="45" x="290" y="200" /><rect class="square dark h4" fill="#d18b47" height="45" stroke="none" width="45" x="335" y="200" /><rect class="square dark a5" fill="#d18b47" height="45" stroke="none" width="45" x="20" y="155" /><rect class="square light b5" fill="#ffce9e" height="45" stroke="none" width="45" x="65" y="155" /><rect class="square dark c5" fill="#d18b47" height="45" stroke="none" width="45" x="110" y="155" /><rect class="square light d5" fill="#ffce9e" height="45" stroke="none" width="45" x="155" y="155" /><rect class="square dark e5" fill="#d18b47" height="45" stroke="none" width="45" x="200" y="155" /><rect class="square light f5" fill="#ffce9e" height="45" stroke="none" width="45" x="245" y="155" /><rect class="square dark g5" fill="#d18b47" height="45" stroke="none" width="45" x="290" y="155" /><rect class="square light h5" fill="#ffce9e" height="45" stroke="none" width="45" x="335" y="155" /><rect class="square light a6" fill="#ffce9e" height="45" stroke="none" width="45" x="20" y="110" /><rect class="square dark b6" fill="#d18b47" height="45" stroke="none" width="45" x="65" y="110" /><rect class="square light c6" fill="#ffce9e" height="45" stroke="none" width="45" x="110" y="110" /><rect class="square dark d6" fill="#d18b47" height="45" stroke="none" width="45" x="155" y="110" /><rect class="square light e6" fill="#ffce9e" height="45" stroke="none" width="45" x="200" y="110" /><rect class="square dark f6" fill="#d18b47" height="45" stroke="none" width="45" x="245" y="110" /><rect class="square light g6" fill="#ffce9e" height="45" stroke="none" width="45" x="290" y="110" /><use transform="translate(290, 110)" xlink:href="#white-queen" /><rect class="square dark h6" fill="#d18b47" height="45" stroke="none" width="45" x="335" y="110" /><rect class="square dark a7" fill="#d18b47" height="45" stroke="none" width="45" x="20" y="65" /><rect class="square light b7" fill="#ffce9e" height="45" stroke="none" width="45" x="65" y="65" /><rect class="square dark c7" fill="#d18b47" height="45" stroke="none" width="45" x="110" y="65" /><rect class="square light d7" fill="#ffce9e" height="45" stroke="none" width="45" x="155" y="65" /><rect class="square dark e7" fill="#d18b47" height="45" stroke="none" width="45" x="200" y="65" /><rect class="square light f7" fill="#ffce9e" height="45" stroke="none" width="45" x="245" y="65" /><use transform="translate(245, 65)" xlink:href="#white-queen" /><rect class="square dark g7" fill="#d18b47" height="45" stroke="none" width="45" x="290" y="65" /><rect class="square light h7" fill="#ffce9e" height="45" stroke="none" width="45" x="335" y="65" /><rect class="square light a8" fill="#ffce9e" height="45" stroke="none" width="45" x="20" y="20" /><rect class="square dark b8" fill="#d18b47" height="45" stroke="none" width="45" x="65" y="20" /><rect class="square light c8" fill="#ffce9e" height="45" stroke="none" width="45" x="110" y="20" /><rect class="square dark d8" fill="#d18b47" height="45" stroke="none" width="45" x="155" y="20" /><rect class="square light e8" fill="#ffce9e" height="45" stroke="none" width="45" x="200" y="20" /><use transform="translate(200, 20)" xlink:href="#white-queen" /><rect class="square dark f8" fill="#d18b47" height="45" stroke="none" width="45" x="245" y="20" /><rect class="square light g8" fill="#ffce9e" height="45" stroke="none" width="45" x="290" y="20" /><rect class="square dark h8" fill="#d18b47" height="45" stroke="none" width="45" x="335" y="20" /><use transform="translate(335, 20)" xlink:href="#white-queen" /><text alignment-baseline="middle" font-size="14" text-anchor="middle" x="42" y="10">a</text><text alignment-baseline="middle" font-size="14" text-anchor="middle" x="42" y="390">a</text><text alignment-baseline="middle" font-size="14" text-anchor="middle" x="87" y="10">b</text><text alignment-baseline="middle" font-size="14" text-anchor="middle" x="87" y="390">b</text><text alignment-baseline="middle" font-size="14" text-anchor="middle" x="132" y="10">c</text><text alignment-baseline="middle" font-size="14" text-anchor="middle" x="132" y="390">c</text><text alignment-baseline="middle" font-size="14" text-anchor="middle" x="177" y="10">d</text><text alignment-baseline="middle" font-size="14" text-anchor="middle" x="177" y="390">d</text><text alignment-baseline="middle" font-size="14" text-anchor="middle" x="222" y="10">e</text><text alignment-baseline="middle" font-size="14" text-anchor="middle" x="222" y="390">e</text><text alignment-baseline="middle" font-size="14" text-anchor="middle" x="267" y="10">f</text><text alignment-baseline="middle" font-size="14" text-anchor="middle" x="267" y="390">f</text><text alignment-baseline="middle" font-size="14" text-anchor="middle" x="312" y="10">g</text><text alignment-baseline="middle" font-size="14" text-anchor="middle" x="312" y="390">g</text><text alignment-baseline="middle" font-size="14" text-anchor="middle" x="357" y="10">h</text><text alignment-baseline="middle" font-size="14" text-anchor="middle" x="357" y="390">h</text><text alignment-baseline="middle" font-size="14" text-anchor="middle" x="10" y="357">1</text><text alignment-baseline="middle" font-size="14" text-anchor="middle" x="390" y="357">1</text><text alignment-baseline="middle" font-size="14" text-anchor="middle" x="10" y="312">2</text><text alignment-baseline="middle" font-size="14" text-anchor="middle" x="390" y="312">2</text><text alignment-baseline="middle" font-size="14" text-anchor="middle" x="10" y="267">3</text><text alignment-baseline="middle" font-size="14" text-anchor="middle" x="390" y="267">3</text><text alignment-baseline="middle" font-size="14" text-anchor="middle" x="10" y="222">4</text><text alignment-baseline="middle" font-size="14" text-anchor="middle" x="390" y="222">4</text><text alignment-baseline="middle" font-size="14" text-anchor="middle" x="10" y="177">5</text><text alignment-baseline="middle" font-size="14" text-anchor="middle" x="390" y="177">5</text><text alignment-baseline="middle" font-size="14" text-anchor="middle" x="10" y="132">6</text><text alignment-baseline="middle" font-size="14" text-anchor="middle" x="390" y="132">6</text><text alignment-baseline="middle" font-size="14" text-anchor="middle" x="10" y="87">7</text><text alignment-baseline="middle" font-size="14" text-anchor="middle" x="390" y="87">7</text><text alignment-baseline="middle" font-size="14" text-anchor="middle" x="10" y="42">8</text><text alignment-baseline="middle" font-size="14" text-anchor="middle" x="390" y="42">8</text><circle class="circle" cx="132.5" cy="357.5" fill="none" opacity="0.5" r="20.25" stroke="red" stroke-width="4.5" /><circle class="circle" cx="177.5" cy="357.5" fill="none" opacity="0.5" r="20.25" stroke="red" stroke-width="4.5" /></svg>