<svg version="1.1" viewBox="0 0 360 360" xmlns="http://www.w3.org/2000/svg" xmlns:xlink="http://www.w3.org/1999/xlink"><style>
.square.light {
fill: #cacaca;
}
.square.dark {
fill: #898989;
}
#xx {
fill: blue;
stroke: red;
}
.square.light.lastmove {
fill: #c3d889;
}
.square.dark.lastmove {
fill: #92b167;
}
.check {
fill: url(#check_gradient);
}
.arrow {
stroke: #ff5858;
fill: blue;
}
.mark {
stroke: #959fff;
fill: blue;
}
</style><defs><g class="white bishop" fill="none" fill-rule="evenodd" id="white-bishop" stroke="#000" stroke-linecap="round" stroke-linejoin="round" stroke-width="1.5"><g fill="#fff" stroke-linecap="butt"><path d="M9 36c3.39-.97 10.11.43 13.5-2 3.39 2.43 10.11 1.03 13.5 2 0 0 1.65.54 3 2-.68.97-1.65.99-3 .5-3.39-.97-10.11.46-13.5-1-3.39 1.46-10.11.03-13.5 1-1.354.49-2.323.47-3-.5 1.354-1.94 3-2 3-2zM15 32c2.5 2.5 12.5 2.5 15 0 .5-1.5 0-2 0-2 0-2.5-2.5-4-2.5-4 5.5-1.5 6-11.5-5-15.5-11 4-10.5 14-5 15.5 0 0-2.5 1.5-2.5 4 0 0-.5.5 0 2zM25 8a2.5 2.5 0 1 1-5 0 2.5 2.5 0 1 1 5 0z" /></g><path d="M17.5 26h10M15 30h15m-7.5-14.5v5M20 18h5" stroke-linejoin="miter" /></g><g class="white queen" fill="#fff" fill-rule="evenodd" id="white-queen" stroke="#000" stroke-linecap="round" stroke-linejoin="round" stroke-width="1.5"><path d="M8 12a2 2 0 1 1-4 0 2 2 0 1 1 4 0zM24.5 7.5a2 2 0 1 1-4 0 2 2 0 1 1 4 0zM41 12a2 2 0 1 1-4 0 2 2 0 1 1 4 0zM16 8.5a2 2 0 1 1-4 0 2 2 0 1 1 4 0zM33 9a2 2 0 1 1-4 0 2 2 0 1 1 4 0z" /><path d="M9 26c8.5-1.5 21-1.5 27 0l2-12-7 11V11l-5.5 13.5-3-15-3 15-5.5-14V25L7 14l2 12zM9 26c0 2 1.5 2 2.5 4 1 1.5 1 1 .5 3.5-1.5 1-1.5 2.5-1.5 2.5-1.5 1.5.5 2.5.5 2.5 6.5 1 16.5 1 23 0 0 0 1.5-1 0-2.5 0 0 .5-1.5-1-2.5-.5-2.5-.5-2 .5-3.5 1-2 2.5-2 2.5-4-8.5-1.5-18.5-1.5-27 0z" stroke-linecap="butt" /><path d="M11.5 30c3.5-1 18.5-1 22 0M12 33.5c6-1 15-1 21 0" fill="none" /></g></defs><rect class="square dark a1" fill="#d18b47" height="45" stroke="none" width="45" x="0" y="315" /><rect class="square light b1" fill="#ffce9e" height="45" stroke="none" width="45" x="45" y="315" /><rect class="square dark c1" fill="#d18b47" height="45" stroke="none" width="45" x="90" y="315" /><rect class="square light d1" fill="#ffce9e" height="45" stroke="none" width="45" x="135" y="315" /><rect class="square dark e1" fill="#d18b47" height="45" stroke="none" width="45" x="180" y="315" /><rect class="square light f1" fill="#ffce9e" height="45" stroke="none" width="45" x="225" y="315" /><use transform="translate(225, 315)" xlink:href="#white-queen" /><rect class="square dark g1" fill="#d18b47" height="45" stroke="none" width="45" x="270" y="315" /><rect class="square light h1" fill="#ffce9e" height="45" stroke="none" width="45" x="315" y="315" /><rect class="square light a2" fill="#ffce9e" height="45" stroke="none" width="45" x="0" y="270" /><rect class="square dark b2" fill="#d18b47" height="45" stroke="none" width="45" x="45" y="270" /><rect class="square light c2" fill="#ffce9e" height="45" stroke="none" width="45" x="90" y="270" /><rect class="square dark d2" fill="#d18b47" height="45" stroke="none" width="45" x="135" y="270" /><rect class="square light e2" fill="#ffce9e" height="45" stroke="none" width="45" x="180" y="270" /><rect class="square dark f2" fill="#d18b47" height="45" stroke="none" width="45" x="225" y="270" /><rect class="square light g2" fill="#ffce9e" height="45" stroke="none" width="45" x="270" y="270" /><rect class="square dark h2" fill="#d18b47" height="45" stroke="none" width="45" x="315" y="270" /><rect class="square dark a3" fill="#d18b47" height="45" stroke="none" width="45" x="0" y="225" /><rect class="square light b3" fill="#ffce9e" height="45" stroke="none" width="45" x="45" y="225" /><use transform="translate(45, 225)" xlink:href="#white-queen" /><rect class="square dark c3" fill="#d18b47" height="45" stroke="none" width="45" x="90" y="225" /><rect class="square light d3" fill="#ffce9e" height="45" stroke="none" width="45" x="135" y="225" /><rect class="square dark e3" fill="#d18b47" height="45" stroke="none" width="45" x="180" y="225" /><rect class="square light f3" fill="#ffce9e" height="45" stroke="none" width="45" x="225" y="225" /><rect class="square dark g3" fill="#d18b47" height="45" stroke="none" width="45" x="270" y="225" /><rect class="square light h3" fill="#ffce9e" height="45" stroke="none" width="45" x="315" y="225" /><rect class="square light a4" fill="#ffce9e" height="45" stroke="none" width="45" x="0" y="180" /><rect class="square dark b4" fill="#d18b47" height="45" stroke="none" width="45" x="45" y="180" /><rect class="square light c4" fill="#ffce9e" height="45" stroke="none" width="45" x="90" y="180" /><rect class="square dark d4" fill="#d18b47" height="45" stroke="none" width="45" x="135" y="180" /><rect class="square light e4" fill="#ffce9e" height="45" stroke="none" width="45" x="180" y="180" /><use transform="translate(180, 180)" xlink:href="#white-bishop" /><rect class="square dark f4" fill="#d18b47" height="45" stroke="none" width="45" x="225" y="180" /><rect class="square light g4" fill="#ffce9e" height="45" stroke="none" width="45" x="270" y="180" /><rect class="square dark h4" fill="#d18b47" height="45" stroke="none" width="45" x="315" y="180" /><rect class="square dark a5" fill="#d18b47" height="45" stroke="none" width="45" x="0" y="135" /><rect class="square light b5" fill="#ffce9e" height="45" stroke="none" width="45" x="45" y="135" /><rect class="square dark c5" fill="#d18b47" height="45" stroke="none" width="45" x="90" y="135" /><rect class="square light d5" fill="#ffce9e" height="45" stroke="none" width="45" x="135" y="135" /><rect class="square dark e5" fill="#d18b47" height="45" stroke="none" width="45" x="180" y="135" /><rect class="square light f5" fill="#ffce9e" height="45" stroke="none" width="45" x="225" y="135" /><rect class="square dark g5" fill="#d18b47" height="45" stroke="none" width="45" x="270" y="135" /><rect class="square light h5" fill="#ffce9e" height="45" stroke="none" width="45" x="315" y="135" /><use transform="translate(315, 135)" xlink:href="#white-queen" /><rect class="square light a6" fill="#ffce9e" height="45" stroke="none" width="45" x="0" y="90" /><rect class="square dark b6" fill="#d18b47" height="45" stroke="none" width="45" x="45" y="90" /><rect class="square light c6" fill="#ffce9e" height="45" stroke="none" width="45" x="90" y="90" /><rect class="square dark d6" fill="#d18b47" height="45" stroke="none" width="45" x="135" y="90" /><rect class="square light e6" fill="#ffce9e" height="45" stroke="none" width="45" x="180" y="90" /><rect class="square dark f6" fill="#d18b47" height="45" stroke="none" width="45" x="225" y="90" /><rect class="square light g6" fill="#ffce9e" height="45" stroke="none" width="45" x="270" y="90" /><rect class="square dark h6" fill="#d18b47" height="45" stroke="none" width="45" x="315" y="90" /><rect class="square dark a7" fill="#d18b47" height="45" stroke="none" width="45" x="0" y="45" /><rect class="square light b7" fill="#ffce9e" height="45" stroke="none" width="45" x="45" y="45" /><rect class="square dark c7" fill="#d18b47" height="45" stroke="none" width="45" x="90" y="45" /><rect class="square light d7" fill="#ffce9e" height="45" stroke="none" width="45" x="135" y="45" /><use transform="translate(135, 45)" xlink:href="#white-queen" /><rect class="square dark e7" fill="#d18b47" height="45" stroke="none" width="45" x="180" y="45" /><rect class="square light f7" fill="#ffce9e" height="45" stroke="none" width="45" x="225" y="45" /><rect class="square dark g7" fill="#d18b47" height="45" stroke="none" width="45" x="270" y="45" /><rect class="square light h7" fill="#ffce9e" height="45" stroke="none" width="45" x="315" y="45" /><rect class="square light a8" fill="#ffce9e" height="45" stroke="none" width="45" x="0" y="0" /><rect class="square dark b8" fill="#d18b47" height="45" stroke="none" width="45" x="45" y="0" /><rect class="square light c8" fill="#ffce9e" height="45" stroke="none" width="45" x="90" y="0" /><rect class="square dark d8" fill="#d18b47" height="45" stroke="none" width="45" x="135" y="0" /><rect class="square light e8" fill="#ffce9e" height="45" stroke="none" width="45" x="180" y="0" /><rect class="square dark f8" fill="#d18b47" height="45" stroke="none" width="45" x="225" y="0" /><rect class="square light g8" fill="#ffce9e" height="45" stroke="none" width="45" x="270" y="0" /><rect class="square dark h8" fill="#d18b47" height="45" stroke="none" width="45" x="315" y="0" /></svg>